<?xml version="1.0" ?><!DOCTYPE svg  PUBLIC '-//W3C//DTD SVG 1.1//EN'  'http://www.w3.org/Graphics/SVG/1.1/DTD/svg11.dtd'><svg enable-background="new 0 0 512 512" height="512px" id="Layer_1" version="1.1" viewBox="0 0 512 512" width="512px" xml:space="preserve" xmlns="http://www.w3.org/2000/svg" xmlns:xlink="http://www.w3.org/1999/xlink"><g><path d="M512,256c0,141.384-114.613,255.997-256,255.997S0,397.384,0,256C0,114.62,114.613,0,256,0   S512,114.62,512,256z" fill="#F0F0F1"/><path d="M260.133,255.553c0,37.131-30.113,67.257-67.239,67.257c-37.16,0-67.287-30.126-67.287-67.257   c0-37.146,30.127-67.263,67.287-67.263C230.02,188.29,260.133,218.407,260.133,255.553z" fill="#3A5FA9"/><path d="M418.946,255.553c0,37.131-30.106,67.257-67.253,67.257c-37.141,0-67.267-30.126-67.267-67.257   c0-37.146,30.126-67.263,67.267-67.263C388.84,188.29,418.946,218.407,418.946,255.553z" fill="#E60E79"/></g></svg>